<mxfile host="app.diagrams.net" agent="Mozilla/5.0 (X11; Linux x86_64) AppleWebKit/537.36 (KHTML, like Gecko) Chrome/124.0.0.0 Safari/537.36" version="24.8.0">
  <diagram name="Page-1" id="-H_mtQnk-PTXWXPvYvuk">
    <mxGraphModel dx="2074" dy="1969" grid="1" gridSize="10" guides="1" tooltips="1" connect="1" arrows="1" fold="1" page="1" pageScale="1" pageWidth="1169" pageHeight="827" math="0" shadow="0">
      <root>
        <mxCell id="0" />
        <mxCell id="1" parent="0" />
        <mxCell id="bxQ7FVcLTLx10-Y_Q1U7-11" value="" style="rounded=1;whiteSpace=wrap;html=1;fillColor=#f5f5f5;fontColor=#333333;strokeColor=#666666;" parent="1" vertex="1">
          <mxGeometry x="700" y="610" width="310" height="290" as="geometry" />
        </mxCell>
        <mxCell id="bxQ7FVcLTLx10-Y_Q1U7-9" value="" style="rounded=1;whiteSpace=wrap;html=1;fillColor=#f5f5f5;fontColor=#333333;strokeColor=#666666;" parent="1" vertex="1">
          <mxGeometry x="210" y="614" width="310" height="290" as="geometry" />
        </mxCell>
        <mxCell id="zA23MoTUsTF4_91t8viU-2" value="MongoDB&lt;div&gt;config server&lt;/div&gt;" style="shape=cylinder3;whiteSpace=wrap;html=1;boundedLbl=1;backgroundOutline=1;size=15;fillColor=#f8cecc;strokeColor=#b85450;" parent="1" vertex="1">
          <mxGeometry x="810" y="340" width="90" height="100" as="geometry" />
        </mxCell>
        <mxCell id="zA23MoTUsTF4_91t8viU-3" value="pymongo-api" style="rounded=1;whiteSpace=wrap;html=1;fillColor=#dae8fc;strokeColor=#6c8ebf;" parent="1" vertex="1">
          <mxGeometry x="665" y="100" width="120" height="60" as="geometry" />
        </mxCell>
        <mxCell id="bxQ7FVcLTLx10-Y_Q1U7-1" value="MongoDB&lt;div&gt;primary&lt;/div&gt;" style="shape=cylinder3;whiteSpace=wrap;html=1;boundedLbl=1;backgroundOutline=1;size=15;fillColor=#d5e8d4;strokeColor=#82b366;" parent="1" vertex="1">
          <mxGeometry x="320" y="644" width="90" height="100" as="geometry" />
        </mxCell>
        <mxCell id="bxQ7FVcLTLx10-Y_Q1U7-3" value="MongoDB&lt;div&gt;router&lt;/div&gt;" style="shape=cylinder3;whiteSpace=wrap;html=1;boundedLbl=1;backgroundOutline=1;size=15;fillColor=#e1d5e7;strokeColor=#9673a6;" parent="1" vertex="1">
          <mxGeometry x="310" y="350" width="90" height="100" as="geometry" />
        </mxCell>
        <mxCell id="bxQ7FVcLTLx10-Y_Q1U7-4" value="MongoDB&lt;div&gt;primary&lt;/div&gt;" style="shape=cylinder3;whiteSpace=wrap;html=1;boundedLbl=1;backgroundOutline=1;size=15;fillColor=#d5e8d4;strokeColor=#82b366;" parent="1" vertex="1">
          <mxGeometry x="810" y="640" width="90" height="100" as="geometry" />
        </mxCell>
        <mxCell id="bxQ7FVcLTLx10-Y_Q1U7-5" value="MongoDB&lt;div&gt;secondary&lt;/div&gt;" style="shape=cylinder3;whiteSpace=wrap;html=1;boundedLbl=1;backgroundOutline=1;size=15;fillColor=#fff2cc;strokeColor=#d6b656;" parent="1" vertex="1">
          <mxGeometry x="260" y="764" width="90" height="100" as="geometry" />
        </mxCell>
        <mxCell id="bxQ7FVcLTLx10-Y_Q1U7-6" value="MongoDB&lt;div&gt;secondary&lt;/div&gt;" style="shape=cylinder3;whiteSpace=wrap;html=1;boundedLbl=1;backgroundOutline=1;size=15;fillColor=#fff2cc;strokeColor=#d6b656;" parent="1" vertex="1">
          <mxGeometry x="390" y="764" width="90" height="100" as="geometry" />
        </mxCell>
        <mxCell id="bxQ7FVcLTLx10-Y_Q1U7-7" value="MongoDB&lt;div&gt;secondary&lt;/div&gt;" style="shape=cylinder3;whiteSpace=wrap;html=1;boundedLbl=1;backgroundOutline=1;size=15;fillColor=#fff2cc;strokeColor=#d6b656;" parent="1" vertex="1">
          <mxGeometry x="740" y="760" width="90" height="100" as="geometry" />
        </mxCell>
        <mxCell id="bxQ7FVcLTLx10-Y_Q1U7-8" value="MongoDB&lt;div&gt;secondary&lt;/div&gt;" style="shape=cylinder3;whiteSpace=wrap;html=1;boundedLbl=1;backgroundOutline=1;size=15;fillColor=#fff2cc;strokeColor=#d6b656;" parent="1" vertex="1">
          <mxGeometry x="890" y="760" width="90" height="100" as="geometry" />
        </mxCell>
        <mxCell id="bxQ7FVcLTLx10-Y_Q1U7-10" value="Replica Set" style="text;html=1;align=center;verticalAlign=middle;whiteSpace=wrap;rounded=0;" parent="1" vertex="1">
          <mxGeometry x="240" y="618" width="80" height="30" as="geometry" />
        </mxCell>
        <mxCell id="bxQ7FVcLTLx10-Y_Q1U7-12" value="Replica Set" style="text;html=1;align=center;verticalAlign=middle;whiteSpace=wrap;rounded=0;" parent="1" vertex="1">
          <mxGeometry x="720" y="614" width="80" height="30" as="geometry" />
        </mxCell>
        <mxCell id="bxQ7FVcLTLx10-Y_Q1U7-13" value="Shard1" style="text;html=1;align=center;verticalAlign=middle;whiteSpace=wrap;rounded=0;" parent="1" vertex="1">
          <mxGeometry x="430" y="624" width="80" height="30" as="geometry" />
        </mxCell>
        <mxCell id="bxQ7FVcLTLx10-Y_Q1U7-14" value="Shard2" style="text;html=1;align=center;verticalAlign=middle;whiteSpace=wrap;rounded=0;" parent="1" vertex="1">
          <mxGeometry x="920" y="614" width="80" height="30" as="geometry" />
        </mxCell>
        <mxCell id="bxQ7FVcLTLx10-Y_Q1U7-16" value="" style="endArrow=classic;html=1;rounded=0;exitX=0.5;exitY=1;exitDx=0;exitDy=0;exitPerimeter=0;strokeWidth=2;entryX=0.447;entryY=0.003;entryDx=0;entryDy=0;entryPerimeter=0;strokeColor=#B5739D;" parent="1" target="bxQ7FVcLTLx10-Y_Q1U7-9" edge="1">
          <mxGeometry width="50" height="50" relative="1" as="geometry">
            <mxPoint x="349.43" y="450" as="sourcePoint" />
            <mxPoint x="350" y="610" as="targetPoint" />
          </mxGeometry>
        </mxCell>
        <mxCell id="bxQ7FVcLTLx10-Y_Q1U7-20" value="" style="endArrow=classic;html=1;rounded=0;exitX=0.5;exitY=1;exitDx=0;exitDy=0;strokeWidth=2;strokeColor=#EA6B66;" parent="1" source="zA23MoTUsTF4_91t8viU-3" edge="1">
          <mxGeometry width="50" height="50" relative="1" as="geometry">
            <mxPoint x="787.29" y="130" as="sourcePoint" />
            <mxPoint x="725" y="245" as="targetPoint" />
            <Array as="points" />
          </mxGeometry>
        </mxCell>
        <mxCell id="bxQ7FVcLTLx10-Y_Q1U7-21" value="" style="shape=curlyBracket;whiteSpace=wrap;html=1;rounded=1;flipH=1;labelPosition=right;verticalLabelPosition=middle;align=left;verticalAlign=middle;direction=south;" parent="1" vertex="1">
          <mxGeometry x="305" y="744" width="120" height="20" as="geometry" />
        </mxCell>
        <mxCell id="bxQ7FVcLTLx10-Y_Q1U7-22" value="" style="shape=curlyBracket;whiteSpace=wrap;html=1;rounded=1;flipH=1;labelPosition=right;verticalLabelPosition=middle;align=left;verticalAlign=middle;direction=south;" parent="1" vertex="1">
          <mxGeometry x="800" y="740" width="120" height="20" as="geometry" />
        </mxCell>
        <mxCell id="bxQ7FVcLTLx10-Y_Q1U7-24" value="" style="endArrow=classic;html=1;rounded=0;entryX=0.321;entryY=-0.008;entryDx=0;entryDy=0;entryPerimeter=0;strokeWidth=2;strokeColor=#B5739D;" parent="1" target="bxQ7FVcLTLx10-Y_Q1U7-11" edge="1">
          <mxGeometry width="50" height="50" relative="1" as="geometry">
            <mxPoint x="350" y="516" as="sourcePoint" />
            <mxPoint x="365" y="624" as="targetPoint" />
            <Array as="points">
              <mxPoint x="800" y="520" />
            </Array>
          </mxGeometry>
        </mxCell>
        <mxCell id="bxQ7FVcLTLx10-Y_Q1U7-25" value="REDIS" style="shape=cylinder3;whiteSpace=wrap;html=1;boundedLbl=1;backgroundOutline=1;size=15;fillColor=#f8cecc;strokeColor=#b85450;gradientColor=#ea6b66;" parent="1" vertex="1">
          <mxGeometry x="910" y="210" width="180" height="70" as="geometry" />
        </mxCell>
        <mxCell id="j2HJOIXOm3k1ufJH1QiE-1" value="pymongo-api" style="rounded=1;whiteSpace=wrap;html=1;fillColor=#dae8fc;strokeColor=#6c8ebf;" vertex="1" parent="1">
          <mxGeometry x="460" y="100" width="120" height="60" as="geometry" />
        </mxCell>
        <mxCell id="j2HJOIXOm3k1ufJH1QiE-2" value="" style="endArrow=classic;html=1;rounded=0;exitX=1;exitY=0.5;exitDx=0;exitDy=0;strokeWidth=2;entryX=0;entryY=0.5;entryDx=0;entryDy=0;entryPerimeter=0;strokeColor=#EA6B66;" edge="1" parent="1" target="bxQ7FVcLTLx10-Y_Q1U7-25">
          <mxGeometry width="50" height="50" relative="1" as="geometry">
            <mxPoint x="580" y="130" as="sourcePoint" />
            <mxPoint x="792.71" y="210" as="targetPoint" />
            <Array as="points">
              <mxPoint x="630" y="130" />
              <mxPoint x="630" y="245" />
            </Array>
          </mxGeometry>
        </mxCell>
        <mxCell id="j2HJOIXOm3k1ufJH1QiE-4" value="" style="endArrow=classic;html=1;rounded=0;exitX=0.5;exitY=1;exitDx=0;exitDy=0;strokeWidth=2;entryX=0.5;entryY=0;entryDx=0;entryDy=0;entryPerimeter=0;strokeColor=#67AB9F;" edge="1" parent="1" target="bxQ7FVcLTLx10-Y_Q1U7-3">
          <mxGeometry width="50" height="50" relative="1" as="geometry">
            <mxPoint x="520" y="160" as="sourcePoint" />
            <mxPoint x="520" y="245" as="targetPoint" />
            <Array as="points">
              <mxPoint x="520" y="320" />
              <mxPoint x="355" y="320" />
            </Array>
          </mxGeometry>
        </mxCell>
        <mxCell id="j2HJOIXOm3k1ufJH1QiE-5" value="" style="endArrow=classic;html=1;rounded=0;exitX=0.5;exitY=1;exitDx=0;exitDy=0;strokeWidth=2;strokeColor=#67AB9F;" edge="1" parent="1">
          <mxGeometry width="50" height="50" relative="1" as="geometry">
            <mxPoint x="690" y="160" as="sourcePoint" />
            <mxPoint x="520" y="280" as="targetPoint" />
            <Array as="points">
              <mxPoint x="690" y="280" />
            </Array>
          </mxGeometry>
        </mxCell>
        <mxCell id="j2HJOIXOm3k1ufJH1QiE-6" value="API Gateway" style="rounded=1;whiteSpace=wrap;html=1;fillColor=#ffe6cc;strokeColor=#d79b00;" vertex="1" parent="1">
          <mxGeometry x="560" y="-90" width="120" height="60" as="geometry" />
        </mxCell>
        <mxCell id="j2HJOIXOm3k1ufJH1QiE-10" value="" style="endArrow=classic;html=1;rounded=0;strokeWidth=2;entryX=0.463;entryY=0.003;entryDx=0;entryDy=0;entryPerimeter=0;strokeColor=#00CC66;" edge="1" parent="1">
          <mxGeometry width="50" height="50" relative="1" as="geometry">
            <mxPoint x="630" y="30" as="sourcePoint" />
            <mxPoint x="520" y="100.00000000000006" as="targetPoint" />
            <Array as="points">
              <mxPoint x="610" y="30" />
              <mxPoint x="605" y="30" />
              <mxPoint x="520" y="30" />
            </Array>
          </mxGeometry>
        </mxCell>
        <mxCell id="j2HJOIXOm3k1ufJH1QiE-11" value="" style="endArrow=classic;html=1;rounded=0;strokeWidth=2;entryX=0.542;entryY=-0.009;entryDx=0;entryDy=0;entryPerimeter=0;strokeColor=#00CC66;" edge="1" parent="1" target="zA23MoTUsTF4_91t8viU-3">
          <mxGeometry width="50" height="50" relative="1" as="geometry">
            <mxPoint x="620" y="30" as="sourcePoint" />
            <mxPoint x="550" y="100.18000000000006" as="targetPoint" />
            <Array as="points">
              <mxPoint x="630" y="30" />
              <mxPoint x="635" y="30.18" />
              <mxPoint x="730" y="30" />
            </Array>
          </mxGeometry>
        </mxCell>
        <mxCell id="j2HJOIXOm3k1ufJH1QiE-12" value="Service discovery" style="rounded=1;whiteSpace=wrap;html=1;fillColor=#f5f5f5;strokeColor=#666666;fontColor=#333333;" vertex="1" parent="1">
          <mxGeometry x="930" y="40" width="120" height="60" as="geometry" />
        </mxCell>
        <mxCell id="j2HJOIXOm3k1ufJH1QiE-13" value="" style="endArrow=classic;html=1;rounded=0;exitX=0.996;exitY=0.567;exitDx=0;exitDy=0;exitPerimeter=0;strokeWidth=2;entryX=0.5;entryY=0;entryDx=0;entryDy=0;strokeColor=#007FFF;" edge="1" parent="1" source="j2HJOIXOm3k1ufJH1QiE-6" target="j2HJOIXOm3k1ufJH1QiE-12">
          <mxGeometry width="50" height="50" relative="1" as="geometry">
            <mxPoint x="644.8700000000001" y="-20" as="sourcePoint" />
            <mxPoint x="740" y="109" as="targetPoint" />
            <Array as="points">
              <mxPoint x="990" y="-56" />
            </Array>
          </mxGeometry>
        </mxCell>
        <mxCell id="j2HJOIXOm3k1ufJH1QiE-14" value="" style="endArrow=classic;html=1;rounded=0;exitX=1;exitY=0.25;exitDx=0;exitDy=0;strokeWidth=2;entryX=0;entryY=0.5;entryDx=0;entryDy=0;strokeColor=#007FFF;" edge="1" parent="1" source="j2HJOIXOm3k1ufJH1QiE-1" target="j2HJOIXOm3k1ufJH1QiE-12">
          <mxGeometry width="50" height="50" relative="1" as="geometry">
            <mxPoint x="678" y="-19" as="sourcePoint" />
            <mxPoint x="1000" y="20" as="targetPoint" />
            <Array as="points">
              <mxPoint x="610" y="115" />
              <mxPoint x="610" y="70" />
              <mxPoint x="880" y="70" />
            </Array>
          </mxGeometry>
        </mxCell>
        <mxCell id="j2HJOIXOm3k1ufJH1QiE-15" value="" style="endArrow=classic;html=1;rounded=0;exitX=1;exitY=0.25;exitDx=0;exitDy=0;strokeWidth=2;strokeColor=#007FFF;" edge="1" parent="1">
          <mxGeometry width="50" height="50" relative="1" as="geometry">
            <mxPoint x="785" y="135" as="sourcePoint" />
            <mxPoint x="815" y="70" as="targetPoint" />
            <Array as="points">
              <mxPoint x="815" y="135" />
              <mxPoint x="815" y="90" />
            </Array>
          </mxGeometry>
        </mxCell>
        <mxCell id="j2HJOIXOm3k1ufJH1QiE-16" value="" style="endArrow=none;html=1;rounded=0;strokeWidth=2;strokeColor=#00CC66;" edge="1" parent="1">
          <mxGeometry width="50" height="50" relative="1" as="geometry">
            <mxPoint x="630" y="30" as="sourcePoint" />
            <mxPoint x="630" y="-30" as="targetPoint" />
          </mxGeometry>
        </mxCell>
        <mxCell id="j2HJOIXOm3k1ufJH1QiE-17" value="" style="endArrow=classic;html=1;rounded=0;entryX=-0.033;entryY=0.606;entryDx=0;entryDy=0;entryPerimeter=0;strokeWidth=2;strokeColor=#B5739D;" edge="1" parent="1" target="zA23MoTUsTF4_91t8viU-2">
          <mxGeometry width="50" height="50" relative="1" as="geometry">
            <mxPoint x="400" y="400" as="sourcePoint" />
            <mxPoint x="850" y="492" as="targetPoint" />
            <Array as="points" />
          </mxGeometry>
        </mxCell>
        <mxCell id="j2HJOIXOm3k1ufJH1QiE-18" value="NGINX" style="rounded=1;whiteSpace=wrap;html=1;fillColor=#60a917;fontColor=#ffffff;strokeColor=#2D7600;" vertex="1" parent="1">
          <mxGeometry x="560" y="-220" width="120" height="60" as="geometry" />
        </mxCell>
        <mxCell id="j2HJOIXOm3k1ufJH1QiE-19" value="CDN 1" style="ellipse;shape=cloud;whiteSpace=wrap;html=1;fillColor=#1ba1e2;fontColor=#ffffff;strokeColor=#006EAF;" vertex="1" parent="1">
          <mxGeometry x="50" y="-100" width="120" height="80" as="geometry" />
        </mxCell>
        <mxCell id="j2HJOIXOm3k1ufJH1QiE-20" value="" style="endArrow=classic;html=1;rounded=0;exitX=0;exitY=0.5;exitDx=0;exitDy=0;strokeWidth=2;strokeColor=#FFD966;" edge="1" parent="1" source="j2HJOIXOm3k1ufJH1QiE-18" target="j2HJOIXOm3k1ufJH1QiE-19">
          <mxGeometry width="50" height="50" relative="1" as="geometry">
            <mxPoint x="470" y="80" as="sourcePoint" />
            <mxPoint x="520" y="30" as="targetPoint" />
            <Array as="points">
              <mxPoint x="110" y="-190" />
            </Array>
          </mxGeometry>
        </mxCell>
        <mxCell id="j2HJOIXOm3k1ufJH1QiE-21" value="" style="endArrow=classic;html=1;rounded=0;exitX=0.5;exitY=1;exitDx=0;exitDy=0;entryX=0.5;entryY=0;entryDx=0;entryDy=0;strokeWidth=2;strokeColor=#00CC66;" edge="1" parent="1" source="j2HJOIXOm3k1ufJH1QiE-18" target="j2HJOIXOm3k1ufJH1QiE-6">
          <mxGeometry width="50" height="50" relative="1" as="geometry">
            <mxPoint x="430" y="20" as="sourcePoint" />
            <mxPoint x="480" y="-30" as="targetPoint" />
          </mxGeometry>
        </mxCell>
        <mxCell id="j2HJOIXOm3k1ufJH1QiE-22" value="Actor" style="shape=umlActor;verticalLabelPosition=bottom;verticalAlign=top;html=1;" vertex="1" parent="1">
          <mxGeometry x="600" y="-390" width="40" height="60" as="geometry" />
        </mxCell>
        <mxCell id="j2HJOIXOm3k1ufJH1QiE-23" value="" style="endArrow=classic;html=1;rounded=0;exitX=0.5;exitY=1;exitDx=0;exitDy=0;entryX=0.5;entryY=0;entryDx=0;entryDy=0;strokeWidth=2;strokeColor=#00CC66;" edge="1" parent="1">
          <mxGeometry width="50" height="50" relative="1" as="geometry">
            <mxPoint x="619.66" y="-300" as="sourcePoint" />
            <mxPoint x="619.66" y="-230" as="targetPoint" />
          </mxGeometry>
        </mxCell>
        <mxCell id="j2HJOIXOm3k1ufJH1QiE-24" value="CDN N" style="ellipse;shape=cloud;whiteSpace=wrap;html=1;fillColor=#1ba1e2;fontColor=#ffffff;strokeColor=#006EAF;" vertex="1" parent="1">
          <mxGeometry x="260" y="-100" width="120" height="80" as="geometry" />
        </mxCell>
        <mxCell id="j2HJOIXOm3k1ufJH1QiE-25" value="......" style="text;html=1;align=center;verticalAlign=middle;whiteSpace=wrap;rounded=0;" vertex="1" parent="1">
          <mxGeometry x="190" y="-70" width="60" height="30" as="geometry" />
        </mxCell>
        <mxCell id="j2HJOIXOm3k1ufJH1QiE-26" value="" style="endArrow=classic;html=1;rounded=0;exitX=0.5;exitY=1;exitDx=0;exitDy=0;strokeWidth=2;strokeColor=#FFD966;" edge="1" parent="1" target="j2HJOIXOm3k1ufJH1QiE-24">
          <mxGeometry width="50" height="50" relative="1" as="geometry">
            <mxPoint x="320" y="-190" as="sourcePoint" />
            <mxPoint x="320" y="-120" as="targetPoint" />
          </mxGeometry>
        </mxCell>
      </root>
    </mxGraphModel>
  </diagram>
</mxfile>
